<svg
    width="100mm"
    height="11mm"
    viewBox="0 0 100 11"
    version="1.1"
    xmlns="http://www.w3.org/2000/svg">
  <g>
    <g
        transform="scale(1.0028128,0.99719513)"
        style="fill:#00267d;stroke-width:1.2;stroke-linejoin:round;stroke-opacity:0.2;paint-order:stroke fill markers">
      <path
          d="M 5.9947495,8.4595906 H 2.8147936 L 2.0844688,10.817931 H 3.0934811e-8 L 3.4386127,0.16736097 H 5.5230814 L 8.946479,10.817931 H 6.7555046 Z M 3.3016768,6.7859296 h 2.282265 L 4.5036697,3.2255961 H 4.3667338 Z"/>
      <path
          d="M 9.9354372,9.1442701 H 12.613295 V 4.8840421 H 9.9354372 V 3.210381 h 4.6558208 v 5.9338891 h 2.814793 V 10.817931 H 9.9354372 Z M 12.248132,1.1411274 q 0,-0.47166812 0.349948,-0.80640032 0.349947,-0.3347322098141 0.973766,-0.3347322098141 0.639034,0 1.019412,0.3347322098141 0.380377,0.3347322 0.380377,0.80640032 0,0.4868832 -0.380377,0.8064003 -0.380378,0.304302 -1.019412,0.304302 -0.623819,0 -0.973766,-0.304302 -0.349948,-0.3195171 -0.349948,-0.8064003 z"/>
      <path
          d="m 18.760172,9.1442701 h 1.886673 V 4.8840421 H 18.760172 V 3.210381 h 3.423398 l 0.228226,1.0041967 h 0.06086 q 0.426022,-0.5020984 0.973766,-0.8368306 0.547744,-0.3347322 1.278068,-0.3347322 0.912906,0 1.43022,0.6694644 0.532528,0.6694645 0.532528,2.2366198 h -1.780166 q 0,-0.5477436 -0.167366,-0.7911852 -0.152151,-0.2586567 -0.502099,-0.2586567 -0.608604,0 -0.988981,0.304302 -0.365163,0.304302 -0.623819,0.6998946 v 3.2408163 h 3.301676 v 1.6736609 h -7.166312 z"/>
      <path
          d="m 28.056576,0.16736097 q 0.136936,-0.0152151 0.471668,-0.0456453 0.349948,-0.0304302 0.77597,-0.0456453 0.441238,-0.0304302 0.897691,-0.0456453 0.471668,-0.0152151 0.836831,-0.0152151 1.415004,0 2.343125,0.41080771 0.928121,0.41080771 1.46065,1.14113252 0.547743,0.7151097 0.760755,1.7040912 0.213011,0.9737665 0.213011,2.1301141 0,1.0498419 -0.213011,2.0540385 -0.213012,1.0041966 -0.77597,1.7953818 -0.547744,0.7759702 -1.536725,1.2628532 -0.973767,0.471668 -2.510492,0.471668 -0.243442,0 -0.623819,-0.01521 -0.380378,-0.01521 -0.77597,-0.04565 -0.395593,-0.01521 -0.760755,-0.04564 -0.365163,-0.01522 -0.562959,-0.04565 z m 3.058235,1.70409123 q -0.289087,0 -0.562958,0.03043 -0.273872,0.015215 -0.410808,0.03043 v 7.135882 q 0.06086,0.015215 0.182581,0.03043 0.121721,0 0.243442,0.015215 0.136936,0 0.258656,0.015215 0.121721,0 0.197797,0 0.882475,0 1.399789,-0.3195171 0.532528,-0.3347322 0.791185,-0.8672607 0.258657,-0.5325285 0.334732,-1.2019929 0.07608,-0.6694644 0.07608,-1.3389288 0,-0.5781738 -0.07608,-1.201993 Q 33.488367,3.5755434 33.22971,3.05823 32.986269,2.5409166 32.48417,2.2061844 31.982072,1.8714522 31.114811,1.8714522 Z"/>
      <path
          d="m 37.322548,9.1442701 h 2.677858 V 4.8840421 H 37.322548 V 3.210381 h 4.655821 v 5.9338891 h 2.814793 v 1.6736609 h -7.470614 z m 2.312695,-8.0031427 q 0,-0.47166812 0.349948,-0.80640032 0.349947,-0.3347322098141 0.973766,-0.3347322098141 0.639034,0 1.019412,0.3347322098141 0.380377,0.3347322 0.380377,0.80640032 0,0.4868832 -0.380377,0.8064003 -0.380378,0.304302 -1.019412,0.304302 -0.623819,0 -0.973766,-0.304302 -0.349948,-0.3195171 -0.349948,-0.8064003 z"/>
      <path
          d="m 46.147282,9.1442701 h 1.886672 V 4.8840421 H 46.147282 V 3.210381 h 3.423397 l 0.228227,1.0041967 h 0.06086 q 0.426023,-0.5020984 0.973767,-0.8368306 0.547743,-0.3347322 1.278068,-0.3347322 0.912906,0 1.43022,0.6694644 0.532528,0.6694645 0.532528,2.2366198 h -1.780167 q 0,-0.5477436 -0.167366,-0.7911852 -0.152151,-0.2586567 -0.502098,-0.2586567 -0.608604,0 -0.988982,0.304302 -0.365162,0.304302 -0.623819,0.6998946 v 3.2408163 h 3.301677 v 1.6736609 h -7.166312 z"/>
      <path
          d="m 62.807796,10.011531 q -0.197796,0.182581 -0.517313,0.365162 -0.304302,0.167366 -0.730325,0.319517 -0.410808,0.152151 -0.912906,0.243442 -0.502098,0.09129 -1.065057,0.09129 -0.973766,0 -1.749736,-0.273872 Q 57.071704,10.483199 56.539175,9.9658856 56.006646,9.433357 55.71756,8.7030322 55.443688,7.9574923 55.443688,7.0141561 q 0,-1.0041966 0.319517,-1.7497365 0.319517,-0.760755 0.867261,-1.2628534 0.562958,-0.5020983 1.308498,-0.7455399 0.74554,-0.2586567 1.612801,-0.2586567 0.578174,0 1.186778,0.152151 0.623819,0.152151 1.141132,0.5325285 0.517314,0.3651624 0.836831,0.9889816 0.334732,0.6238191 0.334732,1.5823704 0,0.6542493 -0.152151,1.4150043 h -5.477436 q 0.01522,0.4868832 0.197796,0.8216154 0.197796,0.3347322 0.502098,0.5477436 0.319518,0.2130114 0.71511,0.3195171 0.410808,0.091291 0.867261,0.091291 0.912906,0 1.49108,-0.2130114 0.593389,-0.2130114 0.958551,-0.5173134 z M 59.521335,4.5797401 q -0.395593,0 -0.74554,0.1065057 -0.349948,0.1065057 -0.639034,0.3195171 -0.273872,0.1977963 -0.456453,0.5020983 -0.182582,0.304302 -0.213012,0.6846795 h 3.742915 q 0,-0.7455399 -0.426023,-1.1715627 Q 60.37338,4.5797401 59.521335,4.5797401 Z"/>
      <path
          d="m 72.119413,10.087606 q -0.623819,0.471668 -1.460649,0.71511 -0.836831,0.228227 -1.749737,0.228227 -0.988981,0 -1.764951,-0.289087 Q 66.383321,10.452769 65.850792,9.9354554 65.333479,9.4029268 65.059607,8.6573869 64.785735,7.911847 64.785735,7.0141561 q 0,-0.9585513 0.319517,-1.7040912 0.319517,-0.7455399 0.882476,-1.2628534 0.578174,-0.5173134 1.354144,-0.7759701 0.77597,-0.2738718 1.688876,-0.2738718 0.852046,0 1.597586,0.1977963 0.74554,0.1977963 1.141132,0.3803775 V 6.2534011 H 70.095805 V 4.8536119 q -0.471668,-0.1065057 -0.943336,-0.1065057 -0.426023,0 -0.852046,0.1369359 -0.410807,0.1217208 -0.74554,0.4108077 -0.319517,0.2738718 -0.532528,0.6998946 -0.197796,0.4260228 -0.197796,1.0194117 0,0.4868832 0.167366,0.8976909 0.167366,0.4108077 0.471668,0.7151097 0.304302,0.304302 0.74554,0.4868832 0.456453,0.1673661 1.004196,0.1673661 0.867261,0 1.415005,-0.2434416 0.562958,-0.2434416 0.83683,-0.4260228 z"/>
      <path
          d="M 74.705956,4.8840421 H 73.199661 V 3.210381 h 1.506295 V 1.4758596 L 76.683919,0.91290089 V 3.210381 h 3.986357 v 1.6736611 h -3.986357 v 2.1757593 q 0,1.1715627 0.441238,1.7040912 0.441238,0.5173134 1.232423,0.5173134 0.410808,0 0.74554,-0.091291 0.334732,-0.1065057 0.593389,-0.2586567 0.273872,-0.152151 0.486883,-0.3347322 0.228227,-0.1825812 0.410808,-0.3347322 l 0.912906,1.3693591 q -0.258657,0.304302 -0.654249,0.5629586 -0.380378,0.243442 -0.836831,0.441238 -0.441238,0.182581 -0.928121,0.289087 -0.486883,0.106506 -0.958551,0.106506 -1.704091,0 -2.571352,-0.943337 -0.852046,-0.958551 -0.852046,-3.0278046 z"/>
      <path
          d="m 82.602569,7.0141561 q 0,-0.9585513 0.289087,-1.7040912 0.289087,-0.7455399 0.821615,-1.2628534 0.532529,-0.5173134 1.262854,-0.7759701 0.74554,-0.2738718 1.658446,-0.2738718 0.958551,0 1.704091,0.2890869 0.760755,0.2890869 1.278068,0.8216154 0.517314,0.5173135 0.77597,1.2628534 0.273872,0.7455399 0.273872,1.6432308 0,0.9585513 -0.289087,1.7040912 -0.289087,0.7455399 -0.821615,1.2628534 -0.532529,0.5173133 -1.278068,0.7911853 -0.730325,0.258657 -1.643231,0.258657 -0.958552,0 -1.719307,-0.289087 Q 84.169724,10.452769 83.652411,9.9354554 83.135098,9.4029268 82.861226,8.6573869 82.602569,7.911847 82.602569,7.0141561 Z m 2.038824,0 q 0,0.5020983 0.136935,0.9281211 0.136936,0.4260228 0.395593,0.7455399 0.258657,0.3195171 0.623819,0.5020983 0.365163,0.1673661 0.836831,0.1673661 0.882476,0 1.430219,-0.5629587 0.562959,-0.5629587 0.562959,-1.7801667 0,-1.0498419 -0.517314,-1.6888761 -0.517313,-0.6542493 -1.475864,-0.6542493 -0.426023,0 -0.791186,0.1369359 -0.365162,0.1217208 -0.639034,0.4108077 -0.258656,0.2890869 -0.410807,0.7303248 -0.152151,0.4412379 -0.152151,1.065057 z"/>
      <path
          d="m 91.792465,9.1442701 h 1.886673 V 4.8840421 H 91.792465 V 3.210381 h 3.423398 l 0.228227,1.0041967 h 0.06086 q 0.426023,-0.5020984 0.973766,-0.8368306 0.547744,-0.3347322 1.278069,-0.3347322 0.912906,0 1.430219,0.6694644 0.532529,0.6694645 0.532529,2.2366198 h -1.780167 q 0,-0.5477436 -0.167366,-0.7911852 -0.152151,-0.2586567 -0.502098,-0.2586567 -0.608604,0 -0.988982,0.304302 -0.365162,0.304302 -0.623819,0.6998946 v 3.2408163 h 3.301677 v 1.6736609 h -7.166313 z"/>
    </g>
  </g>
</svg>
