<svg t="1595021898995" class="icon" viewBox="0 0 1024 1024" version="1.1" xmlns="http://www.w3.org/2000/svg" p-id="1634"
     width="200" height="200">
  <path d="M0 512c0 282.76736 229.23264 512 512 512s512-229.23264 512-512S794.76736 0 512 0 0 229.23264 0 512z"
        fill="#59b6fa" p-id="1635" data-spm-anchor-id="a313x.7781069.0.i5" class="selected">
  </path>
  <path
      d="M512 1024c186.40896 0 349.51168-99.65568 439.05024-248.54528l-0.04096-0.7168c-25.8048-39.30112-203.22304-98.816-272.83456-98.816-138.09664 241.41824-324.48512 41.55392-321.1264 2.2528C260.608 671.5392 144.384 741.19168 79.872 786.47296 170.74176 929.21856 330.24 1024 512 1024z"
      fill="#3962C7" p-id="1636">
  </path>
  <path
      d="M359.26016 689.07008c21.2992 55.15264 190.85312 210.7392 318.91456-13.14816 1.024 0 2.12992 0.06144 3.19488 0.08192-24.08448-22.8352-42.65984-60.78464-35.51232-129.7408-64.3072 100.6592-186.75712 106.61888-249.67168 2.64192 4.58752 30.37184 2.33472 78.11072-36.92544 140.16512z"
      fill="#EDE7E6" p-id="1637">
  </path>
  <path
      d="M392.84736 554.10688c5.69344 20.21376 152.69888 157.47072 285.9008 123.78112-38.99392-47.98464-25.1904-122.94144-22.7328-167.56736 13.78304-30.3104-259.11296 16.83456-263.168 43.78624z"
      fill="#E3DCDB" p-id="1638">
  </path>
  <path
      d="M687.49312 391.3728c-0.8192 45.40416-8.94976 84.50048-22.17984 117.00224 73.78944-21.0944 91.19744-187.02336 22.17984-116.98176z"
      fill="#EFE7E6" p-id="1639">
  </path>
  <path
      d="M649.68704 282.95168c-145.12128 32.5632-204.98432-33.6896-234.63936-53.90336-47.43168 37.888-35.57376 125.48096-50.81088 141.47584a101.376 101.376 0 0 1-7.18848-10.32192c-13.27104 361.28768 333.74208 336.81408 330.52672 19.1488-31.3344-48.00512-25.72288-49.11104-37.888-96.39936z"
      fill="#F7EDEB" p-id="1640">
  </path>
  <path
      d="M415.04768 229.04832c29.65504 20.21376 89.4976 86.46656 234.63936 53.90336 12.43136 48.27136 6.20544 48.27136 39.81312 99.36896 24.55552 8.41728 95.72352-233.2672-112.66048-266.09664-243.95776-37.888-275.29216 176.82432-212.60288 254.30016 15.23712-15.99488 3.3792-103.58784 50.81088-141.47584z"
      fill="#3962C7" p-id="1641">
  </path>
</svg>