<svg t="1595022230923" class="icon" viewBox="0 0 1024 1024" version="1.1" xmlns="http://www.w3.org/2000/svg"
     p-id="10128" width="200" height="200">
  <path
      d="M507.170133 3.618133c279.671467 0 506.350933 226.679467 506.350934 506.350934 0 279.6544-226.679467 506.333867-506.350934 506.333866S0.853333 789.623467 0.853333 509.969067C0.836267 230.2976 227.498667 3.618133 507.170133 3.618133z"
      fill="#e89abe" p-id="10129" data-spm-anchor-id="a313x.7781069.0.i23" class="">
  </path>
  <path
      d="M776.7552 370.0736l11.690667 561.0496-236.868267-69.393067-13.6192-96.768 238.7968-394.888533z m-510.634667 0l-19.421866 516.864 246.6304-25.224533-9.762134-98.679467-217.429333-392.96z"
      fill="#312B28" p-id="10130">
  </path>
  <path
      d="M507.921067 1016.4224a503.569067 503.569067 0 0 0 309.486933-105.7792c-11.690667-15.7696-32.290133-36.1472-67.6864-53.538133-53.213867-25.941333-114.688-26.709333-114.688-26.709334l-131.925333 39.150934-101.1712-40.328534s-68.983467 4.4032-118.3232 33.365334a307.3024 307.3024 0 0 0-71.236267 58.4704 503.876267 503.876267 0 0 0 295.543467 95.368533z"
      fill="#d4237a" p-id="10131" data-spm-anchor-id="a313x.7781069.0.i22" class="">
  </path>
  <path
      d="M460.288 743.714133h110.711467v75.52l124.330666 19.319467s-78.9504 52.224-182.5792 52.224c-89.787733 0-161.1264-54.152533-161.1264-54.152533l108.782934-19.319467-0.119467-73.591467z"
      fill="#faf1ea" p-id="10132" data-spm-anchor-id="a313x.7781069.0.i30" class="selected">
  </path>
  <path
      d="M293.256533 312.029867l-3.857066 110.3872s5.6832 89.156267 17.493333 147.080533c8.465067 41.403733 23.808 74.769067 52.445867 112.315733 41.5232 54.391467 117.469867 94.72 155.3408 94.839467 39.799467 0.1024 104.704-34.645333 145.681066-83.2512 24.7808-29.4912 61.678933-79.9232 68.010667-118.101333 12.970667-79.069867 21.3504-209.083733 21.3504-209.083734l-73.796267-98.696533-382.6688 44.509867z"
      fill="#faf7f5" p-id="10133" data-spm-anchor-id="a313x.7781069.0.i29" class="">
  </path>
  <path
      d="M504.917333 143.616c-199.850667 0-238.8992 167.355733-238.8992 220.672 0 82.602667-7.7312 197.495467-7.7312 197.495467s20.1728-78.7456 21.3504-73.591467c3.106133 13.7216 3.4304 46.660267 3.857067 46.4384 3.328-1.0752 33.041067 15.445333 33.041067 15.445333l-1.928534-125.713066s58.248533 2.133333 106.837334-21.248c41.096533-19.848533 46.574933-96.768 46.574933-96.768s25.088 88.832 83.456 102.570666c58.4704 13.824 153.838933-14.165333 163.157333 27.136 13.1072 58.248533 5.597867 84.4288 2.048 122.197334-0.1024 0.631467 25.105067-13.738667 25.105067-13.738667s4.283733-34.645333 5.802667-46.455467c2.781867-20.923733 13.6192 52.8896 13.6192 52.241067 0.529067-16.622933 15.547733-93.013333 15.547733-178.0736 0-110.592-96.426667-228.608-271.837867-228.608z"
      fill="#312B28" p-id="10134">
  </path>
  <path
      d="M303.018667 490.120533c0.119467 0-9.1136-24.354133-29.184-11.605333-11.3664 7.202133-12.322133 40.567467-7.714134 58.043733 5.802667 22.3232 15.991467 30.2592 25.207467 36.795734 7.509333 4.829867 19.421867 4.1984 19.421867 3.874133l-7.7312-87.108267z m434.7904-16.9472c-0.1024 0 9.454933-2.372267 21.026133 3.857067 11.707733 6.314667 12.117333 40.7552 7.6288 58.368-5.6832 22.408533-15.7696 30.446933-24.900267 37.000533-7.509333 4.829867-21.128533 5.154133-21.128533 4.829867l17.373867-104.055467z"
      fill="#faf7f5" p-id="10135" data-spm-anchor-id="a313x.7781069.0.i31" class="">
  </path>
  <path
      d="M514.901333 689.117867c-17.92 0-35.293867-6.656-48.605866-18.670934a4.9152 4.9152 0 0 1-1.706667-3.652266 4.846933 4.846933 0 0 1 1.3824-3.754667 5.256533 5.256533 0 0 1 7.406933-0.426667c22.852267 20.599467 60.416 20.48 83.1488-0.1024a5.461333 5.461333 0 0 1 3.754667-1.399466 5.3248 5.3248 0 0 1 3.6352 1.706666 5.376 5.376 0 0 1-0.324267 7.509334 72.448 72.448 0 0 1-48.6912 18.773333z"
      fill="#faf7f5" p-id="10136" data-spm-anchor-id="a313x.7781069.0.i36" class="">
  </path>
</svg>